<?xml version="1.0"?>
<svg width="1024" height="1024" xmlns="http://www.w3.org/2000/svg" xmlns:svg="http://www.w3.org/2000/svg" version="1.1">

 <g class="layer" display="inline">
  <title>Layer 1</title>
  <path d="m792,319l-4,25l-3,21l-9,60l-8,48l-4,28l-4,26l-11,66l-14,84l-14,84l0,7l15,24l14,22l16,25l7,11l6,10l-6,-2l-33,-16l-28,-13l-21,-10l-16,-8l-29,-14l-8,-4l1,-14l5,-37l3,-20l4,-26l6,-38l3,-22l0,-9l-176,0l-10,7l-26,17l-20,12l-13,9l-1,-4l9,-55l5,-30l5,-28l-1,-4l-13,-11l-11,-9l-10,-9l-11,-9l-10,-9l-16,-12l-18,-14l-19,-13l-9,0l-28,3l-31,3l-38,4l1,-2l21,-9l29,-13l36,-16l41,-18l24,-11l5,1l179,154l111,-2l6,-3l4,-6l25,-143l45,-44l40,-40l7,-4z" fill="#606E78" id="svg_2"/>
  <path d="m430,90l12,11l16,15l12,11l15,14l15,14l13,12l15,14l16,15l8,7l17,16l10,9l17,16l12,11l15,14l9,8l17,28l12,19l12,19l15,24l5,7l-1,2l-37,-17l-29,-13l-31,-14l-31,-13l-30,-13l-2.6,-1.2l4.6,4.2l7,8l12,12l7,8l14,14l15,3l50,7l0,8l-2,13l-3,30l-3,23l-4,36l-1,6l-2,-4l-12,-45l-10,-30l-1,-4l-17,-4l-13,-4l5,19l11,33l5,13l-1,2l-25,-25l-8,-7l-7,-6l-14,-27l-12,-22l-17,-32l-10,-18l-11,-13l-76,-75l-19,-18l-18,-18l-47,-47l-8,-7l-27,-27l3,0l29,17l29,17l27,16l23,13l21,12l19,11l26,15l25,14l24,14l16,9l-4,-4l-10,-8l-17,-14l-13,-10l-24,-48l-13,-23l-13,-23l-9,-16l-10,-17l0,-2zl7,6z" fill="#71808A" id="svg_3"/>
  <path d="m0,0l5,2l16,13l13,10l14,11l13,11l14,12l11,9l10,9l-2,16l-14,82l-5,33l-6,36l-8,48l-7,34l-5,20l-11,10l-11,9l-14,12l-14,12l-14,12l-12,11l-8,7l-9,8l-1,-3l16,-68l10,-42l6,-26l7,-34l5,-24l11,-55l11,-53l4,-19l-1,-6l-10,-18l-13,-20l-8,-12l-9,-6l-24,-14l-17,-10l-1,-2l27,-7l31,-8z" fill="#3F4A52" id="svg_4" transform="translate(317,480)"/>
  <path d="m304,230l74,22l35,10l16,5l58,51l7,15l13,30l15,28l12,22l5,10l-35,6l-6,-1l-13,-11l-14,-11l-15,-13l-10,-9l-8,-7l-14,-12l-5,-4l-78.9,25.1l55.4,-67.6l5.5,2.5l26,10l12,5l24,5l13,2l-16,-9l-23,-14l-24,-15l-26,-16l-24,-15l-22,-14l-19,-12l-17,-11l-13,-9l0,-0.5l12,2.5z" fill="#3F4B53" id="svg_5"/>
  <path d="m0,0l1,2l-9,62l-6,36l-13,11l-14,11l-17,14l-9,7l-9,7l-1,-4l20,-91l4,-15l5,-5l16,-12l17,-12l15,-11z" fill="#404B54" id="svg_6" transform="translate(461,658)"/>
  <path d="m412,379l4,1l11,10l40,36l14,12l-2,6l-11,25l-4,-2l-15,-14l-11,-9l-7,-7l-11,-9l-7,-7l-8,-7l-10,-9l-8,-7l-5,-5l15,-7l15,-7z" fill="#3D4850" id="svg_7"/>
 </g>
</svg>